<mxfile host="app.diagrams.net" modified="2021-04-21T06:03:44.416Z" agent="5.0 (Windows NT 10.0; Win64; x64) AppleWebKit/537.36 (KHTML, like Gecko) Chrome/89.0.4389.128 Safari/537.36" etag="us2YhUtfnOQl32w1YPBw" version="14.6.3" type="github">
  <diagram id="WixDSlVz4AtBExCVtjPL" name="Page-1">
    <mxGraphModel dx="1422" dy="804" grid="1" gridSize="10" guides="1" tooltips="1" connect="1" arrows="1" fold="1" page="1" pageScale="1" pageWidth="827" pageHeight="1169" math="0" shadow="0">
      <root>
        <mxCell id="0" />
        <mxCell id="1" parent="0" />
        <mxCell id="NhIu7t_ci5jHM26kiFjz-2" value="&lt;font style=&quot;font-size: 18px&quot;&gt;bugFinder&lt;/font&gt;" style="rounded=0;whiteSpace=wrap;html=1;" parent="1" vertex="1">
          <mxGeometry x="160" y="240" width="200" height="80" as="geometry" />
        </mxCell>
        <mxCell id="NhIu7t_ci5jHM26kiFjz-3" value="&lt;span style=&quot;font-size: 18px&quot;&gt;exploitGen&lt;/span&gt;" style="rounded=0;whiteSpace=wrap;html=1;" parent="1" vertex="1">
          <mxGeometry x="520" y="440" width="200" height="80" as="geometry" />
        </mxCell>
        <mxCell id="NhIu7t_ci5jHM26kiFjz-7" value="&lt;font style=&quot;font-size: 14px&quot;&gt;crash, runtime info&lt;br&gt;&lt;/font&gt;" style="text;html=1;strokeColor=none;fillColor=none;align=center;verticalAlign=middle;whiteSpace=wrap;rounded=0;" parent="1" vertex="1">
          <mxGeometry x="400" y="325" width="130" height="40" as="geometry" />
        </mxCell>
        <mxCell id="NhIu7t_ci5jHM26kiFjz-8" value="&lt;font style=&quot;font-size: 14px&quot;&gt;= runtime info =&lt;br&gt;stack pointer,&amp;nbsp;&lt;br&gt;&amp;amp;ret,&amp;nbsp;&lt;br&gt;&lt;br&gt;&lt;/font&gt;" style="text;html=1;strokeColor=none;fillColor=none;align=center;verticalAlign=middle;whiteSpace=wrap;rounded=0;" parent="1" vertex="1">
          <mxGeometry x="590" y="260" width="120" height="90" as="geometry" />
        </mxCell>
        <mxCell id="NhIu7t_ci5jHM26kiFjz-9" value="&lt;span style=&quot;font-size: 18px&quot;&gt;Verifier&lt;/span&gt;" style="rounded=0;whiteSpace=wrap;html=1;" parent="1" vertex="1">
          <mxGeometry x="160" y="585" width="200" height="80" as="geometry" />
        </mxCell>
      </root>
    </mxGraphModel>
  </diagram>
</mxfile>
